<svg width="37" height="50" viewBox="0 0 37 50" fill="none" xmlns="http://www.w3.org/2000/svg">
<path d="M10.4545 35.4545L0 25L10.4545 14.5455L13.6364 17.8409L6.47727 25L13.6364 32.1591L10.4545 35.4545ZM2.27273 36.3636H6.81818V38.6364H29.5455V36.3636H34.0909V45.4545C34.0909 46.7045 33.6462 47.775 32.7568 48.6659C31.8674 49.5568 30.797 50.0015 29.5455 50H6.81818C5.56818 50 4.49848 49.5553 3.60909 48.6659C2.7197 47.7765 2.27424 46.7061 2.27273 45.4545V36.3636ZM6.81818 13.6364H2.27273V4.54545C2.27273 3.29545 2.71818 2.22576 3.60909 1.33636C4.5 0.44697 5.5697 0.00151515 6.81818 0H29.5455C30.7955 0 31.8659 0.445455 32.7568 1.33636C33.6477 2.22727 34.0924 3.29697 34.0909 4.54545V13.6364H29.5455V11.3636H6.81818V13.6364ZM6.81818 43.1818V45.4545H29.5455V43.1818H6.81818ZM6.81818 6.81818H29.5455V4.54545H6.81818V6.81818ZM25.9091 35.4545L22.7273 32.1591L29.8864 25L22.7273 17.8409L25.9091 14.5455L36.3636 25L25.9091 35.4545Z" fill="#2E3192"/>
</svg>
