<svg width="50" height="50" viewBox="0 0 50 50" fill="none" xmlns="http://www.w3.org/2000/svg">
<path d="M27.8764 48.6642L27.8474 48.669L27.6606 48.7531L27.608 48.7627L27.5711 48.7531L27.3843 48.669C27.3562 48.661 27.3352 48.665 27.3211 48.681L27.3106 48.7051L27.2659 49.7332L27.279 49.7813L27.3053 49.8125L27.579 49.9903L27.6185 49.9999L27.6501 49.9903L27.9238 49.8125L27.9553 49.7741L27.9659 49.7332L27.9211 48.7075C27.9141 48.6818 27.8992 48.6674 27.8764 48.6642ZM28.5738 48.3928L28.5396 48.3976L28.0527 48.621L28.0264 48.645L28.0185 48.6714L28.0659 49.7044L28.079 49.7332L28.1001 49.75L28.629 49.9734C28.6624 49.9814 28.6878 49.975 28.7053 49.9542L28.7159 49.9206L28.6264 48.4456C28.6176 48.4168 28.6001 48.3992 28.5738 48.3928ZM26.6922 48.3976C26.6806 48.3912 26.6667 48.3891 26.6535 48.3918C26.6403 48.3945 26.6287 48.4017 26.6211 48.412L26.6053 48.4456L26.5159 49.9206C26.5176 49.9494 26.5325 49.9686 26.5606 49.9782L26.6001 49.9734L27.129 49.75L27.1553 49.7308L27.1659 49.7044L27.2106 48.6714L27.2027 48.6426L27.1764 48.6186L26.6922 48.3976Z" fill="#2E3192"/>
<path d="M36.8421 1.11955e-08C38.8558 -0.000102387 40.7935 0.702232 42.2586 1.9633C43.7237 3.22437 44.6055 4.94885 44.7237 6.7839L44.7368 7.20669V31.229H46.7105C48.4132 31.229 49.8158 32.4109 49.9842 33.9243L50 34.2318V38.4357C50.0001 40.2739 49.2307 42.0426 47.8493 43.3801C46.4678 44.7175 44.5787 45.5225 42.5684 45.6303L42.1053 45.6424H15.7895C13.7758 45.6425 11.8381 44.9401 10.373 43.6791C8.90788 42.418 8.02603 40.6935 7.9079 38.8585L7.89474 38.4357V14.4134H3.28947C2.47511 14.4137 1.68956 14.1383 1.08483 13.6404C0.480096 13.1425 0.0991803 12.4576 0.0157896 11.7181L1.22643e-08 11.4106V7.20669C-0.000112162 5.36848 0.769277 3.5997 2.15075 2.26227C3.53222 0.924842 5.42133 0.119853 7.43158 0.0120114L7.89474 1.11955e-08H36.8421ZM36.8421 4.80446H13.1579V38.4357C13.1579 39.0728 13.4352 39.6838 13.9287 40.1343C14.4222 40.5848 15.0915 40.8379 15.7895 40.8379C16.4874 40.8379 17.1568 40.5848 17.6503 40.1343C18.1438 39.6838 18.4211 39.0728 18.4211 38.4357V34.2318C18.4211 32.5742 19.8947 31.229 21.7105 31.229H39.4737V7.20669C39.4737 6.56958 39.1964 5.95856 38.7029 5.50806C38.2094 5.05755 37.54 4.80446 36.8421 4.80446ZM44.7368 36.0334H23.6842V38.4357C23.6842 39.2764 23.5263 40.086 23.2368 40.8379H42.1053C42.8032 40.8379 43.4726 40.5848 43.9661 40.1343C44.4596 39.6838 44.7368 39.0728 44.7368 38.4357V36.0334ZM26.3158 21.6201C27.0137 21.6201 27.6831 21.8732 28.1766 22.3237C28.6701 22.7742 28.9474 23.3852 28.9474 24.0223C28.9474 24.6594 28.6701 25.2704 28.1766 25.7209C27.6831 26.1714 27.0137 26.4245 26.3158 26.4245H21.0526C20.3547 26.4245 19.6853 26.1714 19.1918 25.7209C18.6983 25.2704 18.4211 24.6594 18.4211 24.0223C18.4211 23.3852 18.6983 22.7742 19.1918 22.3237C19.6853 21.8732 20.3547 21.6201 21.0526 21.6201H26.3158ZM31.5789 12.0111C32.2769 12.0111 32.9462 12.2642 33.4398 12.7147C33.9333 13.1652 34.2105 13.7763 34.2105 14.4134C34.2105 15.0505 33.9333 15.6615 33.4398 16.112C32.9462 16.5625 32.2769 16.8156 31.5789 16.8156H21.0526C20.3547 16.8156 19.6853 16.5625 19.1918 16.112C18.6983 15.6615 18.4211 15.0505 18.4211 14.4134C18.4211 13.7763 18.6983 13.1652 19.1918 12.7147C19.6853 12.2642 20.3547 12.0111 21.0526 12.0111H31.5789ZM7.89474 4.80446C7.25018 4.80454 6.62806 5.02055 6.14639 5.41154C5.66472 5.80252 5.35699 6.34128 5.28158 6.92563L5.26316 7.20669V9.60892H7.89474V4.80446Z" fill="#2E3192"/>
</svg>
