<svg width="146" height="73" viewBox="0 0 146 73" fill="none" xmlns="http://www.w3.org/2000/svg">
<path d="M136.032 14.6442H128.81C123.66 14.6442 119.484 18.8199 119.484 23.9699H128.81H136.032C141.182 23.9699 145.358 19.7942 145.358 14.6365H136.032V14.6442Z" fill="#2E3192"/>
<path d="M42.6769 66.4378C41.3314 66.4378 40.3571 67.5281 40.3571 68.7963V68.8195C40.3571 70.0799 41.3237 71.1625 42.6615 71.1625C43.9992 71.1625 44.9813 70.0645 44.9813 68.804V68.7886C44.9813 67.5281 44.007 66.4455 42.6769 66.4455V66.4378ZM44.5173 68.8118C44.5173 69.8711 43.744 70.7449 42.6769 70.7449C41.6098 70.7449 40.8211 69.8789 40.8211 68.7886V68.7731C40.8211 67.7137 41.5866 66.8399 42.6537 66.8399C43.7209 66.8399 44.5096 67.706 44.5096 68.7886V68.8118H44.5173ZM62.233 65.363H62.7743V64.7753H62.233V65.363ZM62.2871 71.0388H62.7202V66.5383H62.2871V71.0388ZM48.3759 66.4301C47.5563 66.4301 47.0537 66.8476 46.7521 67.3735V66.5383H46.3191V71.0388H46.7521V68.4329C46.7521 67.4972 47.4326 66.8244 48.3141 66.8244C49.1956 66.8244 49.7446 67.4353 49.7446 68.3633V71.0388H50.1777V68.2859C50.1777 67.2111 49.5126 66.4301 48.3759 66.4301ZM65.9525 68.5334C65.3106 68.3478 64.6998 68.1622 64.6998 67.6596V67.6441C64.6998 67.1956 65.1018 66.8554 65.7282 66.8554C66.2076 66.8554 66.6948 67.0332 67.1124 67.3039L67.3443 66.9404C66.8958 66.6389 66.285 66.4455 65.7437 66.4455C64.8699 66.4455 64.259 66.9636 64.259 67.6905V67.706C64.259 68.5102 65.0709 68.7344 65.8055 68.9432C66.4319 69.1211 66.9964 69.3144 66.9964 69.8479V69.8634C66.9964 70.3815 66.5169 70.7217 65.9138 70.7217C65.3415 70.7217 64.7925 70.513 64.2976 70.1263L64.0424 70.4743C64.5219 70.8609 65.2333 71.1238 65.8906 71.1238C66.7566 71.1238 67.4449 70.6135 67.4449 69.8093V69.7938C67.4449 68.9973 66.687 68.7344 65.9602 68.5334H65.9525ZM51.7397 65.363H52.281V64.7753H51.7397V65.363ZM58.7842 67.7214C57.3227 67.4199 56.9825 67.0255 56.9825 66.3682V66.3527C56.9825 65.7109 57.5856 65.1928 58.4904 65.1928C59.1708 65.1928 59.7508 65.3862 60.3385 65.8888L60.6323 65.5253C60.006 65.0227 59.4106 64.7753 58.5136 64.7753C57.3691 64.7753 56.5263 65.4867 56.5263 66.3991V66.4146C56.5263 67.3503 57.1294 67.8529 58.6064 68.1545C60.006 68.4406 60.3539 68.8195 60.3539 69.469V69.4845C60.3539 70.1882 59.7199 70.7063 58.7919 70.7063C57.864 70.7063 57.2531 70.4124 56.5804 69.7861L56.2788 70.1263C57.0212 70.7913 57.7789 71.1161 58.7687 71.1161C59.9596 71.1161 60.8179 70.4279 60.8179 69.4304V69.4149C60.8179 68.5102 60.2148 67.9998 58.7842 67.7137V67.7214ZM51.7938 71.0388H52.2269V66.5383H51.7938V71.0388ZM8.3359 64.9222C8.08072 65.1774 7.94153 65.5795 7.94153 66.0976V66.5383H7.29196V66.9327H7.94153V71.0388H8.37456V66.9327H9.94432V66.5383H8.37456V66.1053C8.37456 65.3398 8.66839 64.9686 9.28701 64.9686C9.51899 64.9686 9.70458 65.0073 9.95976 65.0846V64.6825C9.75871 64.6129 9.56539 64.5742 9.28701 64.5742C8.89264 64.5742 8.57562 64.6979 8.34364 64.9299L8.3359 64.9222ZM4.32262 66.4301C3.50295 66.4301 3.00029 66.8476 2.69871 67.3735V66.5383H2.26568V71.0388H2.69871V68.4329C2.69871 67.4972 3.37921 66.8244 4.26074 66.8244C5.14227 66.8244 5.69132 67.4353 5.69132 68.3633V71.0388H6.12435V68.2859C6.12435 67.2111 5.45933 66.4301 4.32262 66.4301ZM12.7977 66.4301C11.4599 66.4301 10.4778 67.5204 10.4778 68.7886V68.8118C10.4778 70.0722 11.4522 71.1548 12.7822 71.1548C14.1122 71.1548 15.102 70.0567 15.102 68.7963V68.7808C15.102 67.5204 14.1277 66.4378 12.7977 66.4378V66.4301ZM14.6304 68.804C14.6304 69.8634 13.8648 70.7372 12.7977 70.7372C11.7305 70.7372 10.9418 69.8711 10.9418 68.7808V68.7654C10.9418 67.706 11.7074 66.8322 12.7822 66.8322C13.8571 66.8322 14.638 67.6982 14.638 68.7808V68.804H14.6304ZM0 71.0388H0.456252V64.8603H0V71.0388ZM16.8651 67.8142V66.5306H16.432V71.031H16.8651V69.1829C16.8651 67.7137 17.7776 66.9327 18.8137 66.9327H18.8601V66.4533C17.9709 66.4223 17.2208 67.0023 16.8651 67.8065V67.8142ZM38.4781 65.3552H39.0194V64.7675H38.4781V65.3552ZM29.9953 66.461C29.3767 66.461 28.8895 66.6234 28.3946 66.8476L28.5493 67.2265C28.9668 67.0178 29.4153 66.8631 29.9643 66.8631C30.8922 66.8631 31.449 67.3348 31.449 68.2395V68.4329C31.016 68.3169 30.5829 68.2395 29.9566 68.2395C28.7889 68.2395 27.9847 68.7654 27.9847 69.701V69.7165C27.9847 70.6521 28.8817 71.1316 29.7246 71.1316C30.5675 71.1316 31.1397 70.7063 31.449 70.2732V71.0233H31.8743V68.2163C31.8743 67.6596 31.7119 67.242 31.4181 66.9482C31.0933 66.6234 30.6062 66.4533 29.9953 66.4533V66.461ZM31.4645 69.353C31.4645 70.1727 30.6757 70.7372 29.7633 70.7372C29.075 70.7372 28.4564 70.3583 28.4564 69.701V69.6856C28.4564 69.0592 28.99 68.6339 29.9411 68.6339C30.583 68.6339 31.0933 68.7422 31.4722 68.835V69.3453L31.4645 69.353ZM35.4468 70.7372C34.4107 70.7372 33.591 69.8711 33.591 68.7808V68.7654C33.591 67.6905 34.3875 66.8322 35.4082 66.8322C36.0809 66.8322 36.5217 67.1802 36.9083 67.5745L37.2176 67.2575C36.7923 66.8167 36.2665 66.4301 35.4159 66.4301C34.1245 66.4301 33.1193 67.5204 33.1193 68.7886V68.8118C33.1193 70.0722 34.1168 71.1548 35.4159 71.1548C36.2433 71.1548 36.7923 70.7836 37.2563 70.2578L36.9547 69.9949C36.5758 70.4202 36.0809 70.7449 35.4468 70.7449V70.7372ZM25.0463 66.4301C24.1957 66.4301 23.7163 66.894 23.4225 67.4044C23.175 66.8863 22.6878 66.4301 21.9068 66.4301C21.1258 66.4301 20.7005 66.8708 20.4067 67.3425V66.5383H19.9736V71.0388H20.4067V68.4406C20.4067 67.5281 21.0408 66.8244 21.845 66.8244C22.6492 66.8244 23.1595 67.3967 23.1595 68.3323V71.031H23.5926V68.4097C23.5926 67.4044 24.2576 66.8244 25.0154 66.8244C25.8428 66.8244 26.3454 67.3889 26.3454 68.3633V71.0388H26.7784V68.3091C26.7784 67.1801 26.1134 66.4301 25.0463 66.4301ZM38.5399 71.0388H38.973V66.5383H38.5399V71.0388ZM125.75 66.4301C124.404 66.4301 123.43 67.5204 123.43 68.7886V68.8118C123.43 70.0722 124.404 71.1548 125.734 71.1548C127.064 71.1548 128.054 70.0567 128.054 68.7963V68.7808C128.054 67.5204 127.08 66.4378 125.75 66.4378V66.4301ZM127.59 68.804C127.59 69.8634 126.824 70.7372 125.75 70.7372C124.675 70.7372 123.894 69.8711 123.894 68.7808V68.7654C123.894 67.706 124.659 66.8322 125.734 66.8322C126.809 66.8322 127.59 67.6982 127.59 68.7808V68.804ZM133.142 67.4353C132.771 66.9095 132.16 66.4301 131.263 66.4301C130.18 66.4301 129.106 67.2652 129.106 68.5643V68.5875C129.106 69.8711 130.18 70.7063 131.263 70.7063C132.152 70.7063 132.755 70.2191 133.142 69.6624V70.3196C133.142 71.4718 132.415 72.0672 131.379 72.0672C130.714 72.0672 130.095 71.843 129.562 71.4331L129.307 71.7889C129.925 72.2451 130.621 72.4771 131.371 72.4771C132.036 72.4771 132.616 72.2683 133.003 71.8739C133.366 71.5105 133.575 71.0001 133.575 70.3428V66.5383H133.142V67.4353ZM133.173 68.572C133.173 69.5928 132.245 70.281 131.309 70.281C130.374 70.281 129.57 69.5773 129.57 68.5566V68.5411C129.57 67.4895 130.366 66.8399 131.309 66.8399C132.253 66.8399 133.173 67.5127 133.173 68.5488V68.5643V68.572ZM135.284 71.0388H135.717V66.5383H135.284V71.0388ZM117.909 66.4301C116.563 66.4301 115.589 67.5204 115.589 68.7886V68.8118C115.589 70.0722 116.563 71.1548 117.893 71.1548C119.223 71.1548 120.213 70.0567 120.213 68.7963V68.7808C120.213 67.5204 119.239 66.4378 117.909 66.4378V66.4301ZM119.741 68.804C119.741 69.8634 118.968 70.7372 117.909 70.7372C116.849 70.7372 116.053 69.8711 116.053 68.7808V68.7654C116.053 67.706 116.818 66.8322 117.885 66.8322C118.953 66.8322 119.741 67.6982 119.741 68.7808V68.804ZM121.605 71.0388H122.038V64.5897H121.605V71.0388ZM135.23 65.363H135.771V64.7753H135.23V65.363ZM143.512 68.7886C143.512 67.4585 142.708 66.4301 141.447 66.4301C140.187 66.4301 139.313 67.474 139.313 68.7808V68.7963C139.313 70.1959 140.334 71.147 141.517 71.147C142.383 71.147 142.924 70.7913 143.38 70.2964L143.079 70.0335C142.708 70.4279 142.228 70.7372 141.532 70.7372C140.651 70.7372 139.846 70.0877 139.769 68.9664H143.504C143.512 68.8968 143.512 68.8659 143.512 68.7886ZM139.769 68.5798C139.846 67.5822 140.535 66.8322 141.432 66.8322C142.46 66.8322 142.986 67.6673 143.048 68.5798H139.769ZM137.426 65.363H137.967V64.7753H137.426V65.363ZM137.48 71.4641C137.48 71.8894 137.256 72.0904 136.939 72.0904C136.838 72.0904 136.691 72.0904 136.583 72.0672V72.4461C136.715 72.4771 136.823 72.4848 136.947 72.4848C137.527 72.4848 137.913 72.1523 137.913 71.4409V66.5383H137.48V71.4641ZM69.4167 65.1H68.9837V66.5383H68.3264V66.9327H68.9837V69.8789C68.9837 70.7372 69.5482 71.1161 70.2441 71.1161C70.5302 71.1161 70.7467 71.062 70.9787 70.9537V70.5439C70.7235 70.6599 70.5379 70.6985 70.3137 70.6985C69.7956 70.6985 69.4167 70.4743 69.4167 69.8247V66.925H70.9942V66.5306H69.4167V65.0923V65.1ZM112.542 66.4378C111.722 66.4378 111.22 66.8554 110.918 67.3812V66.5461H110.485V71.0465H110.918V68.4406C110.918 67.5049 111.599 66.8322 112.48 66.8322C113.362 66.8322 113.911 67.4431 113.911 68.371V71.0465H114.344V68.2937C114.344 67.2188 113.687 66.4378 112.542 66.4378ZM85.756 71.0465H86.189V66.5461H85.756V71.0465ZM85.7018 65.3707H86.2431V64.783H85.7018V65.3707ZM82.3768 66.4378C81.5262 66.4378 81.0467 66.9018 80.7529 67.4121C80.5054 66.894 80.0183 66.4378 79.2373 66.4378C78.4563 66.4378 78.031 66.8786 77.7371 67.3503V66.5461H77.3041V71.0465H77.7371V68.4483C77.7371 67.5359 78.3712 66.8322 79.1754 66.8322C79.9796 66.8322 80.49 67.4044 80.49 68.3401V71.0388H80.923V68.4174C80.923 67.4121 81.5803 66.8322 82.3458 66.8322C83.1732 66.8322 83.6836 67.3967 83.6836 68.371V71.0465H84.1166V68.3169C84.1166 67.1879 83.4516 66.4378 82.3845 66.4378H82.3768ZM73.9713 66.4378C72.7573 66.4378 71.8371 67.4817 71.8371 68.7886V68.804C71.8371 70.2036 72.8655 71.1548 74.0486 71.1548C74.9147 71.1548 75.456 70.7991 75.9122 70.3042L75.6106 70.0413C75.2395 70.4356 74.7678 70.7449 74.0641 70.7449C73.1825 70.7449 72.3783 70.0954 72.301 68.9741H76.0359C76.0436 68.9045 76.0437 68.8736 76.0437 68.7963C76.0437 67.4663 75.2395 66.4378 73.979 66.4378H73.9713ZM72.2933 68.5798C72.3706 67.5822 73.0588 66.8322 73.9558 66.8322C74.9843 66.8322 75.5101 67.6673 75.572 68.5798H72.2933ZM90.6044 71.0465H91.0374V66.5461H90.6044V71.0465ZM101.747 66.4378C100.533 66.4378 99.613 67.4817 99.613 68.7886V68.804C99.613 70.2036 100.634 71.1548 101.825 71.1548C102.691 71.1548 103.224 70.7991 103.688 70.3042L103.387 70.0413C103.015 70.4356 102.536 70.7449 101.84 70.7449C100.958 70.7449 100.154 70.0954 100.077 68.9741H103.812C103.82 68.9045 103.82 68.8736 103.82 68.7963C103.82 67.4663 103.015 66.4378 101.755 66.4378H101.747ZM100.069 68.5798C100.147 67.5822 100.835 66.8322 101.732 66.8322C102.76 66.8322 103.286 67.6673 103.348 68.5798H100.069ZM99.814 64.8603H95.043V65.2856H97.2004V71.0465H97.6566V65.2856H99.814V64.8603ZM90.5503 65.363H91.0915V64.7753H90.5503V65.363ZM107.129 66.4301C106.31 66.4301 105.807 66.8476 105.505 67.3735V64.5897H105.072V71.0388H105.505V68.4329C105.505 67.4972 106.186 66.8244 107.067 66.8244C107.949 66.8244 108.498 67.4353 108.498 68.3633V71.0388H108.931V68.2859C108.931 67.2111 108.266 66.4301 107.129 66.4301Z" fill="white"/>
<path d="M31.3834 23.9701H58.8346C63.9846 23.9701 68.168 19.7944 68.168 14.6367H31.3834C24.3698 14.6367 18.6708 20.3357 18.6708 27.3493V28.6097C18.6708 35.6233 24.3775 41.3223 31.3834 41.3223H55.4476C57.3112 41.3223 58.8346 42.8457 58.8346 44.7093V45.4207C58.8346 47.2843 57.319 48.8076 55.4476 48.8076H27.9578C22.8078 48.8076 18.6321 52.9833 18.6321 58.141H55.4476C62.4612 58.141 68.168 52.4343 68.168 45.4284V44.717C68.168 37.7034 62.4612 32.0044 55.4476 32.0044H31.3834C29.5198 32.0044 28.0042 30.4888 28.0042 28.6175V27.357C28.0042 25.4934 29.5198 23.9701 31.3834 23.9701ZM0.0117188 14.6367V48.8153C0.0117188 53.9653 4.18739 58.141 9.33739 58.141V48.8153C9.33739 48.8153 9.33739 29.1201 9.33739 23.9701C9.33739 18.8201 5.16171 14.6444 0.0117188 14.6444V14.6367ZM77.5014 14.6367V48.8153C77.5014 53.9653 81.6771 58.141 86.8271 58.141V48.8153V23.9701C86.8271 18.8201 82.6514 14.6444 77.5014 14.6444V14.6367ZM100.823 23.9624V14.6367H91.4976C91.4976 19.7867 95.6733 23.9624 100.823 23.9624ZM145.372 42.6214V33.2958C140.222 33.2958 136.046 37.4714 136.046 42.6214V45.4284C136.046 47.292 134.53 48.8153 132.659 48.8153H113.551C111.688 48.8153 110.164 47.2997 110.164 45.4284V9.97386C110.164 4.82387 105.989 0.648193 100.839 0.648193V45.4284C100.839 52.442 106.546 58.141 113.551 58.141H132.659C139.672 58.141 145.372 52.4343 145.372 45.4284V42.6214Z" fill="#009FDA"/>
</svg>
