<svg width="33" height="50" viewBox="0 0 33 50" fill="none" xmlns="http://www.w3.org/2000/svg">
<path fill-rule="evenodd" clip-rule="evenodd" d="M17.4065 48.7254L17.379 48.73L17.2163 48.8102L17.1705 48.8194L17.1384 48.8102L16.9756 48.7277C16.9512 48.7216 16.9328 48.7262 16.9206 48.7415L16.9115 48.7644L16.8725 49.7454L16.8839 49.7912L16.9069 49.821L17.1452 49.9907L17.1796 49.9998L17.2071 49.9907L17.4455 49.821L17.473 49.7844L17.4822 49.7454L17.4432 48.7667C17.4371 48.7422 17.4249 48.7285 17.4065 48.7254ZM18.0117 48.4664L17.9796 48.471L17.5578 48.6842L17.5349 48.7071L17.528 48.7323L17.5693 49.7179L17.5807 49.7454L17.5991 49.7637L18.0598 49.9746C18.0888 49.9823 18.111 49.9761 18.1263 49.9563L18.1354 49.9242L18.0575 48.5168C18.0499 48.4878 18.0346 48.471 18.0117 48.4664ZM16.3728 48.471C16.3627 48.4649 16.3506 48.4629 16.3391 48.4654C16.3276 48.468 16.3175 48.4749 16.3109 48.4847L16.2972 48.5168L16.2192 49.9242C16.2208 49.9517 16.2338 49.97 16.2582 49.9792L16.2926 49.9746L16.7533 49.7614L16.7762 49.7431L16.7831 49.7179L16.8244 48.7323L16.8175 48.7048L16.7946 48.6819L16.3728 48.471Z" fill="#2E3192"/>
<path fill-rule="evenodd" clip-rule="evenodd" d="M22.9216 1.77301e-08C24.784 -0.000115773 26.6022 0.566919 28.1343 1.62564C29.6665 2.68437 30.8399 4.18458 31.4984 5.92663C32.1569 7.66868 32.2692 9.56996 31.8205 11.3774C31.3718 13.1849 30.3833 14.8129 28.9865 16.0447C30.695 17.5479 31.7833 19.6327 32.04 21.8938C32.2967 24.1549 31.7034 26.4306 30.3754 28.2785C29.0474 30.1264 27.0797 31.4144 24.8548 31.8921C22.6299 32.3698 20.3069 32.0031 18.3374 30.8632V36.6737C18.3373 38.2057 17.9534 39.7133 17.2206 41.0587C16.4878 42.4041 15.4295 43.5444 14.1425 44.3754C12.8555 45.2065 11.3807 45.7018 9.85299 45.8161C8.32525 45.9304 6.79322 45.66 5.39688 45.0297C4.00054 44.3994 2.7844 43.4292 1.85958 42.2078C0.934755 40.9865 0.330735 39.5528 0.102703 38.0379C-0.125329 36.5229 0.0298966 34.975 0.554197 33.5355C1.0785 32.096 1.95516 30.8108 3.10408 29.7974C2.12861 28.9369 1.34738 27.8788 0.812288 26.6932C0.2772 25.5077 0.000500811 24.2218 0.000572135 22.9211C0.000500811 21.6203 0.2772 20.3345 0.812288 19.1489C1.34738 17.9633 2.12861 16.9052 3.10408 16.0447C1.70732 14.8129 0.718809 13.1849 0.270099 11.3774C-0.178612 9.56996 -0.0662436 7.66868 0.592251 5.92663C1.25075 4.18458 2.42414 2.68437 3.95628 1.62564C5.48842 0.566919 7.30664 -0.000115773 9.16899 1.77301e-08H22.9216ZM13.7532 32.0895H9.16899C8.26232 32.0895 7.37601 32.3583 6.62214 32.8621C5.86827 33.3658 5.2807 34.0817 4.93374 34.9194C4.58677 35.757 4.49599 36.6788 4.67287 37.568C4.84975 38.4573 5.28636 39.2741 5.92747 39.9152C6.56858 40.5563 7.38541 40.9929 8.27466 41.1698C9.16391 41.3467 10.0856 41.2559 10.9233 40.909C11.761 40.562 12.4769 39.9744 12.9806 39.2205C13.4843 38.4667 13.7532 37.5804 13.7532 36.6737V32.0895ZM13.7532 18.3368H9.16899C7.95319 18.3368 6.78717 18.8198 5.92747 19.6795C5.06776 20.5392 4.58478 21.7052 4.58478 22.9211C4.58478 24.1369 5.06776 25.3029 5.92747 26.1626C6.78717 27.0223 7.95319 27.5053 9.16899 27.5053H13.7532V18.3368ZM22.9216 18.3368C21.7058 18.3368 20.5398 18.8198 19.6801 19.6795C18.8204 20.5392 18.3374 21.7052 18.3374 22.9211C18.3374 24.1369 18.8204 25.3029 19.6801 26.1626C20.5398 27.0223 21.7058 27.5053 22.9216 27.5053C24.1374 27.5053 25.3035 27.0223 26.1632 26.1626C27.0229 25.3029 27.5058 24.1369 27.5058 22.9211C27.5058 21.7052 27.0229 20.5392 26.1632 19.6795C25.3035 18.8198 24.1374 18.3368 22.9216 18.3368ZM22.9216 4.58421H18.3374V13.7526H22.9216C24.1112 13.758 25.2562 13.3007 26.1149 12.4774C26.9735 11.654 27.4785 10.5292 27.5231 9.34047C27.5678 8.15173 27.1486 6.99219 26.3541 6.10682C25.5596 5.22144 24.4521 4.67957 23.2654 4.59567L22.9216 4.58421ZM13.7532 4.58421H9.16899C7.95319 4.58421 6.78717 5.06719 5.92747 5.9269C5.06776 6.7866 4.58478 7.95262 4.58478 9.16842C4.58478 10.3842 5.06776 11.5502 5.92747 12.41C6.78717 13.2697 7.95319 13.7526 9.16899 13.7526H13.7532V4.58421Z" fill="#2E3192"/>
</svg>
