<svg width="146" height="58" viewBox="0 0 146 58" fill="none" xmlns="http://www.w3.org/2000/svg">
<path d="M31.3834 23.402H58.8346C63.9846 23.402 68.168 19.2263 68.168 14.0686H31.3834C24.3698 14.0686 18.6708 19.7676 18.6708 26.7812V28.0416C18.6708 35.0552 24.3775 40.7542 31.3834 40.7542H55.4476C57.3112 40.7542 58.8346 42.2776 58.8346 44.1412V44.8526C58.8346 46.7162 57.319 48.2395 55.4476 48.2395H27.9578C22.8078 48.2395 18.6321 52.4152 18.6321 57.5729H55.4476C62.4612 57.5729 68.168 51.8661 68.168 44.8603V44.1489C68.168 37.1353 62.4612 31.4363 55.4476 31.4363H31.3834C29.5198 31.4363 28.0042 29.9207 28.0042 28.0494V26.7889C28.0042 24.9253 29.5198 23.402 31.3834 23.402ZM0.0117188 14.0686V48.2472C0.0117188 53.3972 4.18739 57.5729 9.33739 57.5729V48.2472C9.33739 48.2472 9.33739 28.552 9.33739 23.402C9.33739 18.252 5.16171 14.0763 0.0117188 14.0763V14.0686ZM77.5014 14.0686V48.2472C77.5014 53.3972 81.6771 57.5729 86.8271 57.5729V48.2472V23.402C86.8271 18.252 82.6514 14.0763 77.5014 14.0763V14.0686ZM100.823 23.3942V14.0686H91.4976C91.4976 19.2186 95.6733 23.3942 100.823 23.3942ZM145.372 42.0533V32.7277C140.222 32.7277 136.046 36.9033 136.046 42.0533V44.8603C136.046 46.7239 134.53 48.2472 132.659 48.2472H113.551C111.688 48.2472 110.164 46.7316 110.164 44.8603V9.40575C110.164 4.25575 105.989 0.0800781 100.839 0.0800781V44.8603C100.839 51.8739 106.546 57.5729 113.551 57.5729H132.659C139.672 57.5729 145.372 51.8661 145.372 44.8603V42.0533Z" fill="white"/>
</svg>
