<svg width="83" height="54" viewBox="0 0 83 54" fill="none" xmlns="http://www.w3.org/2000/svg">
<path d="M12.6484 52.5162C9.9495 51.7607 7.46526 50.3539 5.19567 48.2958C2.92609 46.2377 1.28382 43.9024 0.268851 41.29C1.82821 41.7265 3.58981 41.556 5.55363 40.7786C7.51746 40.0012 8.8264 38.4442 9.48046 36.1075C10.3199 33.1088 12.0829 30.8536 14.7696 29.342C17.4564 27.8305 20.2991 27.4944 23.2979 28.3338C26.2966 29.1732 28.5518 30.9363 30.0634 33.623C31.5749 36.3097 31.911 39.1524 31.0716 42.1512C29.9636 46.1096 27.6057 49.1037 23.9978 51.1335C20.3899 53.1633 16.6068 53.6242 12.6484 52.5162ZM39.3836 36.7169L32.2577 24.0509L73.4796 0.859304C74.324 0.384243 75.246 0.269787 76.2455 0.515938C77.245 0.762088 78.0024 1.34661 78.5175 2.2695L82.0157 8.48733C82.534 9.40849 82.6588 10.3489 82.3902 11.3085C82.1216 12.2681 81.5267 13.007 80.6055 13.5253L39.3836 36.7169Z" fill="#2E3192"/>
</svg>
