<svg width="50" height="50" viewBox="0 0 50 50" fill="none" xmlns="http://www.w3.org/2000/svg">
<path d="M8.97899 19.9186L13.8426 21.9739C14.4246 20.8113 15.0273 19.6903 15.6509 18.6107C16.2744 17.5312 16.9603 16.4517 17.7086 15.3722L14.2167 14.6871L8.97899 19.9186ZM17.8333 25.0879L24.9416 32.1256C26.6876 31.4612 28.5582 30.444 30.5535 29.0738C32.5488 27.7037 34.4195 26.1467 36.1654 24.4028C39.0752 21.4964 41.3516 18.2686 42.9944 14.7195C44.6372 11.1703 45.3539 7.9002 45.1444 4.90909C42.1514 4.70149 38.8674 5.41813 35.2924 7.05901C31.7175 8.69988 28.475 10.9727 25.5652 13.8774C23.8193 15.6213 22.2604 17.4897 20.8886 19.4827C19.5168 21.4756 18.4984 23.344 17.8333 25.0879ZM28.9323 21.0397C27.9762 20.0847 27.4982 18.9122 27.4982 17.5221C27.4982 16.132 27.9762 14.9586 28.9323 14.002C29.8884 13.0454 31.0731 12.5679 32.4865 12.5696C33.8998 12.5712 35.0846 13.0487 36.0407 14.002C36.9968 14.9553 37.4748 16.1287 37.4748 17.5221C37.4748 18.9155 36.9968 20.088 36.0407 21.0397C35.0846 21.9913 33.8998 22.4688 32.4865 22.4721C31.0731 22.4754 29.8884 21.998 28.9323 21.0397ZM30.117 41.0316L35.3548 35.8001L34.6689 32.3124C33.5881 33.0598 32.5073 33.7341 31.4265 34.3353C30.3457 34.9365 29.2233 35.5286 28.0593 36.1115L30.117 41.0316ZM49.6339 0.362632C50.4237 5.38657 49.9357 10.276 48.1698 15.0309C46.4039 19.7858 43.3585 24.3214 39.0337 28.6379L40.2808 34.8036C40.447 35.634 40.4055 36.4437 40.156 37.2325C39.9066 38.0214 39.4909 38.7065 38.909 39.2878L28.4335 49.7509L23.1957 37.4817L12.5332 26.8317L0.249417 21.6002L10.6625 11.1371C11.2445 10.5558 11.9412 10.1406 12.7527 9.89151C13.5641 9.64239 14.3847 9.60087 15.2144 9.76695L21.3875 11.0126C25.7107 6.69446 30.2417 3.64273 34.9807 1.85736C39.7196 0.071991 44.604 -0.426252 49.6339 0.362632ZM4.67656 34.7413C6.13149 33.2881 7.909 32.5516 10.0091 32.5316C12.1092 32.5117 13.8858 33.2275 15.3391 34.6791C16.7924 36.1306 17.5099 37.906 17.4916 40.0053C17.4733 42.1045 16.735 43.8791 15.2768 45.329C14.2375 46.367 12.5024 47.2597 10.0714 48.007C7.64046 48.7544 4.28331 49.4187 0 50C0.581972 45.7234 1.24708 42.3703 1.99533 39.9405C2.74358 37.5107 3.63732 35.7777 4.67656 34.7413ZM8.23074 38.229C7.81505 38.6442 7.39935 39.4024 6.98366 40.5035C6.56797 41.6046 6.27698 42.7149 6.1107 43.8343C7.23308 43.6682 8.34547 43.3883 9.44789 42.9947C10.5503 42.6011 11.3085 42.1959 11.7226 41.779C12.2214 41.2808 12.4916 40.6787 12.5332 39.9729C12.5747 39.267 12.3461 38.665 11.8473 38.1668C11.3484 37.6685 10.7457 37.4294 10.039 37.4493C9.33233 37.4692 8.72957 37.7291 8.23074 38.229Z" fill="#2E3192"/>
</svg>
