<svg width="50" height="50" viewBox="0 0 50 50" fill="none" xmlns="http://www.w3.org/2000/svg">
<path d="M46.1111 50L28.6111 32.5C27.2222 33.6111 25.625 34.4907 23.8194 35.1389C22.0139 35.787 20.0926 36.1111 18.0556 36.1111C13.0093 36.1111 8.73889 34.363 5.24445 30.8667C1.75 27.3704 0.00185332 23.1 1.46972e-06 18.0556C-0.00185038 13.0111 1.7463 8.74074 5.24445 5.24444C8.74259 1.74815 13.013 0 18.0556 0C23.0981 0 27.3694 1.74815 30.8694 5.24444C34.3694 8.74074 36.1167 13.0111 36.1111 18.0556C36.1111 20.0926 35.787 22.0139 35.1389 23.8194C34.4907 25.625 33.6111 27.2222 32.5 28.6111L50 46.1111L46.1111 50ZM18.0556 30.5556C21.5278 30.5556 24.4796 29.3407 26.9111 26.9111C29.3426 24.4815 30.5574 21.5296 30.5556 18.0556C30.5537 14.5815 29.3389 11.6306 26.9111 9.20278C24.4833 6.775 21.5315 5.55926 18.0556 5.55556C14.5796 5.55185 11.6287 6.76759 9.20278 9.20278C6.77685 11.638 5.56111 14.5889 5.55556 18.0556C5.55 21.5222 6.76574 24.4741 9.20278 26.9111C11.6398 29.3481 14.5907 30.563 18.0556 30.5556Z" fill="#2E3192"/>
</svg>
