<svg width="122" height="141" viewBox="0 0 122 141" fill="none" xmlns="http://www.w3.org/2000/svg">
<path d="M53.8373 139.541C46.7254 141.447 40.5715 141.017 35.3758 138.251C30.2971 135.553 26.8792 130.925 25.122 124.368L18.3657 99.1525C17.648 96.474 16.4322 94.5229 14.7184 93.2992C13.0046 92.0755 10.8546 91.8102 8.26848 92.5031L4.11215 93.6168L0.39987 79.7624L4.5562 78.6487C7.14236 77.9558 8.87161 76.651 9.74397 74.7343C10.5916 72.7253 10.6565 70.3815 9.93881 67.703L2.95972 41.6567C1.17783 35.0066 1.81152 29.2436 4.86079 24.3678C8.00243 19.4672 13.1292 16.0641 20.2412 14.1585L26.06 12.5993L29.7723 26.4537L23.9534 28.0129C21.7367 28.6069 20.1675 29.7698 19.2456 31.5017C18.4161 33.2089 18.3231 35.2632 18.9666 37.6646L25.5373 62.187C26.5701 65.672 26.8359 69.0656 26.3348 72.3677C25.8089 75.5774 24.5128 78.4986 22.4463 81.1311C25.3856 82.1255 27.8854 83.881 29.9457 86.3978C32.0983 88.8898 33.5739 91.8107 34.3725 95.1605L40.9804 119.821C41.5991 122.13 42.6944 123.817 44.2664 124.881C45.9554 126.012 47.9083 126.281 50.125 125.687L55.9439 124.127L59.6562 137.982L53.8373 139.541Z" fill="#2E3192"/>
<path d="M95.8021 128.297L92.0899 114.442L97.9087 112.883C100.125 112.289 101.682 111.08 102.579 109.256C103.501 107.524 103.607 105.516 102.896 103.231L96.2877 78.5704C95.3968 75.2453 95.2142 71.9779 95.7401 68.7682C96.3584 65.5337 97.6916 62.7511 99.74 60.4204C96.6341 59.1737 94.0048 57.3044 91.8522 54.8124C89.7671 52.2032 88.3006 49.1314 87.4525 45.5968L80.8818 21.0745C80.3307 18.6483 79.223 16.9158 77.5586 15.8768C75.8943 14.8378 73.9538 14.6153 71.7371 15.2093L65.9183 16.7685L62.206 2.91403L68.0248 1.35487C75.2291 -0.57551 81.3706 -0.191734 86.4493 2.50621C91.5279 5.20415 94.9582 9.87818 96.7401 16.5283L103.719 42.5746C104.437 45.2531 105.665 47.2504 107.404 48.5665C109.21 49.7654 111.36 50.0308 113.854 49.3626L118.01 48.2489L121.722 62.1033L117.566 63.217C115.072 63.8852 113.343 65.19 112.378 67.1314C111.506 69.0481 111.428 71.3456 112.146 74.0242L118.902 99.2392C120.66 105.797 120.014 111.514 116.964 116.39C113.94 121.358 108.825 124.807 101.621 126.737L95.8021 128.297Z" fill="#2E3192"/>
</svg>
