<svg width="53" height="67" viewBox="0 0 53 67" fill="none" xmlns="http://www.w3.org/2000/svg">
<path d="M49.875 0.375488H2.375C1.06133 0.375488 0 1.43682 0 2.75049V64.5005C0 65.8142 1.06133 66.8755 2.375 66.8755H49.875C51.1887 66.8755 52.25 65.8142 52.25 64.5005V2.75049C52.25 1.43682 51.1887 0.375488 49.875 0.375488ZM5.34375 5.71924H46.9062V21.1567H5.34375V5.71924ZM46.9062 41.3442H5.34375V25.9067H46.9062V41.3442ZM46.9062 61.5317H5.34375V46.0942H46.9062V61.5317ZM10.6875 13.438C10.6875 14.2253 11.0003 14.9805 11.557 15.5372C12.1138 16.094 12.8689 16.4067 13.6562 16.4067C14.4436 16.4067 15.1987 16.094 15.7555 15.5372C16.3122 14.9805 16.625 14.2253 16.625 13.438C16.625 12.6506 16.3122 11.8955 15.7555 11.3388C15.1987 10.782 14.4436 10.4692 13.6562 10.4692C12.8689 10.4692 12.1138 10.782 11.557 11.3388C11.0003 11.8955 10.6875 12.6506 10.6875 13.438ZM10.6875 33.6255C10.6875 34.4128 11.0003 35.168 11.557 35.7247C12.1138 36.2815 12.8689 36.5942 13.6562 36.5942C14.4436 36.5942 15.1987 36.2815 15.7555 35.7247C16.3122 35.168 16.625 34.4128 16.625 33.6255C16.625 32.8381 16.3122 32.083 15.7555 31.5263C15.1987 30.9695 14.4436 30.6567 13.6562 30.6567C12.8689 30.6567 12.1138 30.9695 11.557 31.5263C11.0003 32.083 10.6875 32.8381 10.6875 33.6255ZM10.6875 53.813C10.6875 54.6003 11.0003 55.3555 11.557 55.9122C12.1138 56.469 12.8689 56.7817 13.6562 56.7817C14.4436 56.7817 15.1987 56.469 15.7555 55.9122C16.3122 55.3555 16.625 54.6003 16.625 53.813C16.625 53.0256 16.3122 52.2705 15.7555 51.7138C15.1987 51.157 14.4436 50.8442 13.6562 50.8442C12.8689 50.8442 12.1138 51.157 11.557 51.7138C11.0003 52.2705 10.6875 53.0256 10.6875 53.813Z" fill="white"/>
</svg>
