<svg width="111" height="53" viewBox="0 0 111 53" fill="none" xmlns="http://www.w3.org/2000/svg">
<path d="M30.8857 40.7319L6.55323 29.6199V24.6052L30.8857 13.4362V19.0777L10.6561 28.0813V26.0868L30.8857 35.0904V40.7319ZM34.8189 49.2796L53.9658 2.32423H59.9492L40.8023 49.2796H34.8189Z" fill="white"/>
<path d="M108.872 0.375488H71.2781C70.2384 0.375488 69.3984 1.21548 69.3984 2.25519V51.1274C69.3984 52.1671 70.2384 53.0071 71.2781 53.0071H108.872C109.912 53.0071 110.752 52.1671 110.752 51.1274V2.25519C110.752 1.21548 109.912 0.375488 108.872 0.375488ZM73.6278 4.60482H106.523V16.8229H73.6278V4.60482ZM106.523 32.8003H73.6278V20.5823H106.523V32.8003ZM106.523 48.7778H73.6278V36.5597H106.523V48.7778ZM77.8571 10.7138C77.8571 11.337 78.1046 11.9346 78.5453 12.3753C78.9859 12.8159 79.5836 13.0635 80.2067 13.0635C80.8299 13.0635 81.4275 12.8159 81.8682 12.3753C82.3088 11.9346 82.5563 11.337 82.5563 10.7138C82.5563 10.0907 82.3088 9.49305 81.8682 9.05241C81.4275 8.61177 80.8299 8.36422 80.2067 8.36422C79.5836 8.36422 78.9859 8.61177 78.5453 9.05241C78.1046 9.49305 77.8571 10.0907 77.8571 10.7138ZM77.8571 26.6913C77.8571 27.3145 78.1046 27.9121 78.5453 28.3527C78.9859 28.7934 79.5836 29.0409 80.2067 29.0409C80.8299 29.0409 81.4275 28.7934 81.8682 28.3527C82.3088 27.9121 82.5563 27.3145 82.5563 26.6913C82.5563 26.0681 82.3088 25.4705 81.8682 25.0299C81.4275 24.5892 80.8299 24.3417 80.2067 24.3417C79.5836 24.3417 78.9859 24.5892 78.5453 25.0299C78.1046 25.4705 77.8571 26.0681 77.8571 26.6913ZM77.8571 42.6688C77.8571 43.2919 78.1046 43.8896 78.5453 44.3302C78.9859 44.7708 79.5836 45.0184 80.2067 45.0184C80.8299 45.0184 81.4275 44.7708 81.8682 44.3302C82.3088 43.8896 82.5563 43.2919 82.5563 42.6688C82.5563 42.0456 82.3088 41.448 81.8682 41.0073C81.4275 40.5667 80.8299 40.3191 80.2067 40.3191C79.5836 40.3191 78.9859 40.5667 78.5453 41.0073C78.1046 41.448 77.8571 42.0456 77.8571 42.6688Z" fill="white"/>
</svg>
