<svg width="74" height="75" viewBox="0 0 74 75" fill="none" xmlns="http://www.w3.org/2000/svg">
<g clip-path="url(#clip0_15_103)">
<path d="M37 58.9588C37 60.0072 37.0925 61.0247 37.2467 62.0422H20.0417C15.4167 62.0422 11.3775 60.5005 8.04754 57.2013C4.74837 53.9638 3.08337 49.9863 3.08337 45.3305C3.08337 41.3222 4.28587 37.7455 6.69087 34.6005C10.2984 29.883 12.3334 29.4513 16.1875 28.588C17.4825 23.8705 20.0417 20.0472 23.8959 17.118C27.75 14.1888 32.1284 12.7088 37 12.7088C43.0125 12.7088 48.1 14.8055 52.2934 18.9988C56.4867 23.1922 58.5834 28.2797 58.5834 34.2922C62.1292 34.693 65.0584 36.2347 67.4017 38.9172C67.5867 39.0713 67.71 39.318 67.8334 39.503C65.0584 38.1463 61.9134 37.3755 58.5834 37.3755C56.4559 37.3755 54.3592 37.7147 52.4167 38.2697V34.2922C52.4167 30.0372 50.875 26.3988 47.915 23.3772C44.8934 20.4172 41.255 18.8755 37 18.8755C32.745 18.8755 29.1067 20.4172 26.085 23.3772C23.125 26.3988 21.5834 30.0372 21.5834 34.2922H20.0417C17.0509 34.2922 14.5225 35.3405 12.4259 37.468C10.2984 39.5647 9.25004 42.093 9.25004 45.0838C9.25004 48.0747 10.2984 50.603 12.4259 52.7922C14.5225 54.8272 17.0509 55.8755 20.0417 55.8755H37.2467C37.0925 56.893 37 57.9105 37 58.9588ZM73.4759 64.0155L70.3925 69.3497C70.1767 69.7505 69.7759 69.7505 69.375 69.7505L65.5825 68.2088C64.75 68.7638 63.9175 69.2572 62.9925 69.658L62.4067 73.728C62.345 74.098 62.0059 74.3755 61.6667 74.3755H55.5C55.0684 74.3755 54.76 74.098 54.6984 73.728L54.1125 69.658C53.1567 69.288 52.2934 68.7638 51.4917 68.2088L47.6684 69.7505C47.2984 69.7505 46.8975 69.7505 46.7125 69.3497L43.6292 64.0155C43.5431 63.8545 43.5145 63.669 43.5482 63.4896C43.5818 63.3102 43.6756 63.1477 43.8142 63.0288L47.0825 60.5005C46.9598 59.4764 46.9598 58.4413 47.0825 57.4172L43.8142 54.8888C43.6706 54.7736 43.573 54.6107 43.5391 54.4297C43.5051 54.2488 43.5371 54.0616 43.6292 53.9022L46.7125 48.568C46.9284 48.1672 47.3292 48.1672 47.6684 48.1672L51.4917 49.7088C52.2934 49.1538 53.1875 48.6605 54.1125 48.2597L54.6984 44.1897C54.7346 44.0047 54.8348 43.8384 54.9814 43.72C55.128 43.6016 55.3116 43.5386 55.5 43.5422H61.6667C62.0059 43.5422 62.345 43.8197 62.3759 44.1897L62.9617 48.2597C63.9175 48.6297 64.75 49.1538 65.5825 49.7088L69.375 48.1672C69.7759 48.1672 70.1767 48.1672 70.3617 48.568L73.445 53.9022C73.63 54.2413 73.5375 54.6422 73.26 54.8888L69.9917 57.4172C70.0842 57.9413 70.115 58.4347 70.115 58.9588C70.115 59.483 70.0534 59.9763 69.9917 60.5005L73.2909 63.0288C73.5684 63.2755 73.6609 63.6763 73.4759 64.0155ZM63.2084 58.9588C63.2084 56.3997 61.1117 54.3338 58.5834 54.3338C56.055 54.3338 53.9584 56.3997 53.9584 58.9588C53.9584 61.518 55.9934 63.5838 58.5834 63.5838C61.1734 63.5838 63.2084 61.518 63.2084 58.9588Z" fill="white"/>
</g>
<defs>
<clipPath id="clip0_15_103">
<rect width="74" height="74" fill="white" transform="translate(0 0.375488)"/>
</clipPath>
</defs>
</svg>
