<svg width="88" height="89" viewBox="0 0 88 89" fill="none" xmlns="http://www.w3.org/2000/svg">
<path d="M33.396 43.4881L41.7707 35.0915L34.243 27.5381L29.9933 31.7841L27.3973 29.1881L31.625 24.9421L24.4677 17.7848L16.071 26.1815L33.396 43.4881ZM62.1207 72.2348L70.5173 63.8381L63.3637 56.6808L59.1177 60.9048L56.5253 58.3088L60.7457 54.0628L53.2657 46.6048L44.8873 54.9795L62.1207 72.2348ZM26.2277 73.7088H14.6667V62.1441L30.778 46.0328L11 26.1851L24.4677 12.7175L44.4107 32.5871L63.4957 13.4765L74.8073 25.1108L55.9533 44.0601L75.6617 63.9078L62.1867 77.3755L42.339 57.5975L26.2277 73.7088ZM18.3333 70.0421H24.6657L60.6723 34.0575L54.3143 27.7068L18.3333 63.7098V70.0421ZM57.5373 30.8601L54.318 27.7068L60.6687 34.0611L57.5373 30.8601Z" fill="white"/>
</svg>
